<?xml version="1.0" encoding="UTF-8" standalone="no"?>
<svg
   xmlns:dc="http://purl.org/dc/elements/1.1/"
   xmlns:cc="http://creativecommons.org/ns#"
   xmlns:rdf="http://www.w3.org/1999/02/22-rdf-syntax-ns#"
   xmlns:svg="http://www.w3.org/2000/svg"
   xmlns="http://www.w3.org/2000/svg"
   xmlns:sodipodi="http://sodipodi.sourceforge.net/DTD/sodipodi-0.dtd"
   xmlns:inkscape="http://www.inkscape.org/namespaces/inkscape"
   height="16px"
   viewBox="0 0 16 16"
   width="16px"
   version="1.1"
   id="svg2"
   sodipodi:docname="My_LaTeX.svg"
   inkscape:version="0.92.4 (5da689c313, 2019-01-14)">
  <metadata
     id="metadata7">
    <rdf:RDF>
      <cc:Work
         rdf:about="">
        <dc:format>image/svg+xml</dc:format>
        <dc:type
           rdf:resource="http://purl.org/dc/dcmitype/StillImage" />
        <dc:title />
      </cc:Work>
    </rdf:RDF>
  </metadata>
  <defs
     id="defs2" />
  <sodipodi:namedview
     id="namedview2"
     pagecolor="#ffffff"
     bordercolor="#000000"
     borderopacity="0.25"
     inkscape:showpageshadow="2"
     inkscape:pageopacity="0.0"
     inkscape:pagecheckerboard="0"
     inkscape:deskcolor="#d1d1d1"
     inkscape:zoom="48.5625"
     inkscape:cx="2.8085985"
     inkscape:cy="9.3042451"
     inkscape:window-width="1920"
     inkscape:window-height="1051"
     inkscape:window-x="-9"
     inkscape:window-y="-9"
     inkscape:window-maximized="1"
     inkscape:current-layer="text1"
     showgrid="false" />
  <g
     aria-label="TeX"
     transform="scale(0.73210328,1.3659275)"
     style="font-size:14.80579376px;line-height:3.29999995;font-family:'MV Boli';-inkscape-font-specification:'MV Boli';text-align:start;writing-mode:lr-tb;direction:ltr;text-anchor:start;fill:#1155ff;stroke:#f9ed2a;stroke-width:0"
     id="text1">
    <path
       d="m 7.3090745,1.1777508 0.096121,2.037775 H 7.1616882 Q 7.0911992,2.6772456 6.9694453,2.4465541 6.7707943,2.0748844 6.4375732,1.9018658 6.1107602,1.7224391 5.57248,1.7224391 H 4.3485333 v 6.6387892 q 0,0.8010122 0.1730187,0.9996632 0.2435077,0.2691401 0.7497474,0.2691401 H 5.57248 V 9.8671312 H 1.8878238 V 9.6300316 h 0.3075887 q 0.5510964,0 0.7817879,-0.3332211 Q 3.1181786,9.0917514 3.1181786,8.3612283 V 1.7224391 H 2.0736587 q -0.6087693,0 -0.8650932,0.089713 Q 0.8753444,1.9339063 0.63824479,2.2799436 0.40114517,2.6259808 0.35628849,3.2155258 H 0.11278077 l 0.10252957,-2.037775 z"
       style="font-style:normal;font-variant:normal;font-weight:normal;font-stretch:normal;font-size:13.12378407px;font-family:'Times New Roman';-inkscape-font-specification:'Times New Roman, ';stroke-width:0"
       id="path4748" />
    <path
       d="m 8.2126161,6.2081075 q -0.00641,1.3072519 0.6344016,2.0505912 0.6408098,0.7433393 1.5059033,0.7433393 0.576728,0 0.999663,-0.3139967 0.429342,-0.3204049 0.717707,-1.0893766 l 0.198651,0.1281619 q -0.13457,0.8779094 -0.781788,1.6020244 -0.647218,0.717707 -1.6212487,0.717707 -1.0573362,0 -1.8134917,-0.8202365 -0.7497474,-0.8266446 -0.7497474,-2.2172018 0,-1.505903 0.7689717,-2.3453638 0.7753798,-0.8458689 1.9416541,-0.8458689 0.986847,0 1.621248,0.653626 0.634402,0.6472178 0.634402,1.7365945 z m 0,-0.3716697 H 10.929649 Q 10.897609,5.2725252 10.795079,5.0418337 10.634877,4.6829802 10.314472,4.4779211 10.000475,4.272862 9.654438,4.272862 q -0.5318721,0 -0.9548065,0.4165263 -0.4165264,0.4101183 -0.4870154,1.1470495 z"
       style="font-style:normal;font-variant:normal;font-weight:normal;font-stretch:normal;font-size:13.12378407px;font-family:'Times New Roman';-inkscape-font-specification:'Times New Roman, ';stroke-width:0"
       id="path4750" />
    <path
       d="m 17.991372,5.0546499 1.864757,2.7811144 q 0.77538,1.1534575 1.147049,1.4610462 0.378078,0.3011806 0.954807,0.3332211 V 9.8671312 H 18.228472 V 9.6300316 q 0.37167,-0.00641 0.551096,-0.076897 0.134571,-0.057673 0.217876,-0.1730186 0.08971,-0.1217538 0.08971,-0.2435077 0,-0.1473863 -0.05767,-0.2947725 Q 18.984628,8.7328979 18.677039,8.277923 L 17.203176,6.047905 15.383277,8.3804526 q -0.288365,0.3716696 -0.346038,0.4998316 -0.05767,0.1217538 -0.05767,0.2563239 0,0.2050591 0.173018,0.3396292 0.173019,0.13457 0.660034,0.1537943 V 9.8671312 H 12.730324 V 9.6300316 q 0.326813,-0.032041 0.563913,-0.13457 0.397302,-0.1666106 0.756155,-0.4485669 0.358854,-0.2819563 0.820237,-0.8650932 L 16.92122,5.5929301 15.210258,3.0873639 Q 14.511775,2.0684763 14.02476,1.7544796 13.537745,1.4340747 12.903343,1.4148504 V 1.1777508 h 4.017877 v 0.2370996 q -0.512648,0.019224 -0.704891,0.1666105 -0.185834,0.1473863 -0.185834,0.326813 0,0.2370996 0.307588,0.6920746 l 1.332885,1.9929183 1.544351,-1.9544698 q 0.26914,-0.3460372 0.326813,-0.4741992 0.06408,-0.1281619 0.06408,-0.262732 0,-0.13457 -0.0769,-0.2370996 -0.09612,-0.1345701 -0.243508,-0.1858348 -0.147386,-0.057673 -0.608769,-0.064081 V 1.1777508 h 3.082295 v 0.2370996 q -0.365262,0.019224 -0.595953,0.1153457 -0.346037,0.1473863 -0.634402,0.3973021 -0.288364,0.2499158 -0.813828,0.9227661 z"
       style="font-style:normal;font-variant:normal;font-weight:normal;font-stretch:normal;font-size:13.12378407px;font-family:'Times New Roman';-inkscape-font-specification:'Times New Roman, ';stroke-width:0;fill:#11d300;fill-opacity:1"
       id="path4752" />
  </g>
</svg>
